<svg width="54" height="10" viewBox="0 0 54 10" fill="none" xmlns="http://www.w3.org/2000/svg">
<path d="M5.98789 7.512H2.84389L2.33989 9H0.191895L3.23989 0.575995H5.61589L8.6639 9H6.49189L5.98789 7.512ZM5.45989 5.928L4.41589 2.844L3.38389 5.928H5.45989Z" fill="#D4D4D8"/>
<path d="M9.18355 5.64C9.18355 4.95199 9.31155 4.34799 9.56755 3.82799C9.83155 3.30799 10.1876 2.90799 10.6356 2.628C11.0836 2.34799 11.5836 2.20799 12.1356 2.20799C12.5756 2.20799 12.9756 2.29999 13.3356 2.48399C13.7036 2.66799 13.9916 2.91599 14.1996 3.22799V0.119995H16.2516V9H14.1996V8.04C14.0076 8.36 13.7316 8.61599 13.3716 8.80799C13.0196 8.99999 12.6076 9.09599 12.1356 9.09599C11.5836 9.09599 11.0836 8.95599 10.6356 8.67599C10.1876 8.38799 9.83155 7.984 9.56755 7.46399C9.31155 6.93599 9.18355 6.328 9.18355 5.64ZM14.1996 5.652C14.1996 5.14 14.0556 4.73599 13.7676 4.43999C13.4876 4.14399 13.1436 3.996 12.7356 3.996C12.3276 3.996 11.9796 4.14399 11.6916 4.43999C11.4116 4.72799 11.2716 5.128 11.2716 5.64C11.2716 6.152 11.4116 6.56 11.6916 6.864C11.9796 7.16 12.3276 7.308 12.7356 7.308C13.1436 7.308 13.4876 7.16 13.7676 6.864C14.0556 6.568 14.1996 6.164 14.1996 5.652Z" fill="#D4D4D8"/>
<path d="M20.7841 9.09599C20.1281 9.09599 19.5361 8.95599 19.0081 8.67599C18.4881 8.39599 18.0761 7.996 17.7721 7.476C17.4761 6.956 17.3281 6.348 17.3281 5.652C17.3281 4.964 17.4801 4.36 17.7841 3.84C18.1459 3.22115 17.972 1.78 18.5 1.5C19.028 1.22 20.1521 2.20799 20.8081 2.20799C21.4641 2.20799 22.972 1.22 23.5 1.5C24.028 1.78 23.5281 3.312 23.8321 3.84C24.1361 4.36 24.2881 4.964 24.2881 5.652C24.2881 6.34 24.1321 6.948 23.8201 7.476C23.5161 7.996 23.0961 8.39599 22.5601 8.67599C22.0321 8.95599 21.4401 9.09599 20.7841 9.09599ZM20.7841 7.32C21.1761 7.32 21.5081 7.176 21.7801 6.888C22.0601 6.6 22.2001 6.188 22.2001 5.652C22.2001 5.116 22.0641 4.70399 21.7921 4.41599C21.5281 4.12799 21.2001 3.98399 20.8081 3.98399C20.4081 3.98399 20.0761 4.12799 19.8121 4.41599C19.5481 4.69599 19.4161 5.108 19.4161 5.652C19.4161 6.188 19.5441 6.6 19.8001 6.888C20.0641 7.176 20.3921 7.32 20.7841 7.32Z" fill="#D4D4D8"/>
<path d="M31.7967 3.288C31.7967 3.776 31.6847 4.224 31.4607 4.632C31.2367 5.032 30.8927 5.35599 30.4287 5.60399C29.9647 5.85199 29.3887 5.976 28.7007 5.976H27.4287V9H25.3767V0.575995H28.7007C29.3727 0.575995 29.9407 0.691995 30.4047 0.923995C30.8687 1.15599 31.2167 1.47599 31.4487 1.88399C31.6807 2.29199 31.7967 2.75999 31.7967 3.288ZM28.5447 4.344C28.9367 4.344 29.2287 4.252 29.4207 4.068C29.6127 3.884 29.7087 3.624 29.7087 3.288C29.7087 2.952 29.6127 2.692 29.4207 2.508C29.2287 2.324 28.9367 2.232 28.5447 2.232H27.4287V4.344H28.5447Z" fill="#D4D4D8"/>
<path d="M39.177 5.54399C39.177 5.736 39.165 5.936 39.141 6.144H34.497C34.529 6.56 34.661 6.88 34.893 7.104C35.133 7.32 35.425 7.428 35.769 7.428C36.281 7.428 36.637 7.21199 36.837 6.77999H39.021C38.909 7.21999 38.705 7.616 38.409 7.968C38.121 8.32 37.757 8.59599 37.317 8.79599C36.877 8.99599 36.385 9.09599 35.841 9.09599C35.185 9.09599 34.601 8.95599 34.089 8.67599C33.577 8.39599 33.177 7.996 32.889 7.476C32.601 6.956 32.457 6.348 32.457 5.652C32.457 4.956 32.597 4.34799 32.877 3.82799C33.165 3.30799 33.565 2.90799 34.077 2.628C34.589 2.34799 35.177 2.20799 35.841 2.20799C36.489 2.20799 37.065 2.34399 37.569 2.616C38.073 2.888 38.465 3.276 38.745 3.77999C39.033 4.284 39.177 4.87199 39.177 5.54399ZM37.077 5.00399C37.077 4.65199 36.957 4.37199 36.717 4.16399C36.477 3.95599 36.177 3.85199 35.817 3.85199C35.473 3.85199 35.181 3.952 34.941 4.152C34.709 4.352 34.565 4.63599 34.509 5.00399H37.077Z" fill="#D4D4D8"/>
<path d="M43.9915 7.25999V9H42.9475C42.2035 9 41.6235 8.82 41.2075 8.46C40.7915 8.092 40.5835 7.496 40.5835 6.672V4.008H39.7675V2.30399H40.5835V0.671995H42.6355V2.30399H43.9795V4.008H42.6355V6.696C42.6355 6.896 42.6835 7.03999 42.7795 7.128C42.8755 7.21599 43.0355 7.25999 43.2595 7.25999H43.9915Z" fill="#D4D4D8"/>
<path d="M47.8585 9.09599C47.2745 9.09599 46.7545 8.99599 46.2985 8.79599C45.8425 8.59599 45.4825 8.324 45.2185 7.98C44.9545 7.628 44.8065 7.236 44.7745 6.804H46.8025C46.8265 7.036 46.9345 7.224 47.1265 7.368C47.3185 7.512 47.5545 7.584 47.8345 7.584C48.0905 7.584 48.2865 7.536 48.4225 7.44C48.5665 7.336 48.6385 7.204 48.6385 7.044C48.6385 6.852 48.5385 6.71199 48.3385 6.62399C48.1385 6.52799 47.8145 6.424 47.3665 6.312C46.8865 6.2 46.4865 6.084 46.1665 5.96399C45.8465 5.83599 45.5705 5.64 45.3385 5.376C45.1065 5.104 44.9905 4.74 44.9905 4.284C44.9905 3.9 45.0945 3.552 45.3025 3.24C45.5185 2.91999 45.8305 2.66799 46.2385 2.48399C46.6545 2.29999 47.1465 2.20799 47.7145 2.20799C48.5545 2.20799 49.2145 2.41599 49.6945 2.832C50.1825 3.248 50.4625 3.8 50.5345 4.488H48.6385C48.6065 4.256 48.5025 4.072 48.3265 3.936C48.1585 3.8 47.9345 3.732 47.6545 3.732C47.4145 3.732 47.2305 3.78 47.1025 3.876C46.9745 3.964 46.9105 4.088 46.9105 4.24799C46.9105 4.44 47.0105 4.584 47.2105 4.68C47.4185 4.776 47.7385 4.87199 48.1705 4.96799C48.6665 5.09599 49.0705 5.22399 49.3825 5.35199C49.6945 5.472 49.9665 5.67199 50.1985 5.95199C50.4385 6.22399 50.5625 6.59199 50.5705 7.05599C50.5705 7.44799 50.4585 7.8 50.2345 8.112C50.0185 8.416 49.7025 8.65599 49.2865 8.832C48.8785 9.008 48.4025 9.09599 47.8585 9.09599Z" fill="#D4D4D8"/>
<path d="M52.7859 9.09599C52.4259 9.09599 52.1299 8.992 51.8979 8.784C51.6739 8.568 51.5619 8.304 51.5619 7.992C51.5619 7.672 51.6739 7.40399 51.8979 7.18799C52.1299 6.97199 52.4259 6.864 52.7859 6.864C53.1379 6.864 53.4259 6.97199 53.6499 7.18799C53.8819 7.40399 53.9979 7.672 53.9979 7.992C53.9979 8.304 53.8819 8.568 53.6499 8.784C53.4259 8.992 53.1379 9.09599 52.7859 9.09599Z" fill="#D4D4D8"/>
</svg>
